<svg width="32" height="32" viewBox="0 0 32 32" fill="none" xmlns="http://www.w3.org/2000/svg">
<g clip-path="url(#clip0_222_7)">
<path d="M16 23.6362L22.84 27.8424C23.0174 27.9502 23.2229 28.0029 23.4303 27.9939C23.6377 27.9849 23.8378 27.9147 24.0053 27.792C24.1728 27.6693 24.3001 27.4997 24.3713 27.3047C24.4424 27.1097 24.4541 26.8979 24.405 26.6962L22.545 18.8474L28.6325 13.5974C28.7877 13.4612 28.8996 13.2824 28.9544 13.0833C29.0091 12.8841 29.0044 12.6733 28.9407 12.4768C28.877 12.2803 28.7572 12.1067 28.596 11.9776C28.4348 11.8484 28.2394 11.7693 28.0337 11.7499L20.045 11.0999L16.9675 3.64995C16.889 3.45775 16.7551 3.29327 16.5828 3.17749C16.4105 3.06171 16.2076 2.99988 16 2.99988C15.7924 2.99988 15.5895 3.06171 15.4172 3.17749C15.2449 3.29327 15.1109 3.45775 15.0325 3.64995L11.955 11.0999L3.96622 11.7499C3.75918 11.7681 3.56209 11.8469 3.39956 11.9765C3.23704 12.106 3.11629 12.2806 3.05241 12.4784C2.98853 12.6761 2.98434 12.8884 3.04038 13.0885C3.09641 13.2886 3.21018 13.4678 3.36747 13.6037L9.45497 18.8537L7.59497 26.6962C7.5458 26.8979 7.55753 27.1097 7.62867 27.3047C7.69981 27.4997 7.82717 27.6693 7.99466 27.792C8.16215 27.9147 8.36225 27.9849 8.56967 27.9939C8.77708 28.0029 8.98251 27.9502 9.15997 27.8424L16 23.6362Z" stroke="#EFEFEF" stroke-width="2" stroke-linecap="round" stroke-linejoin="round"/>
</g>
<defs>
<clipPath id="clip0_222_7">
<rect width="32" height="32" fill="white"/>
</clipPath>
</defs>
</svg>
